<?xml version="1.0" standalone="no"?>
<!DOCTYPE svg PUBLIC "-//W3C//DTD SVG 20010904//EN"
 "http://www.w3.org/TR/2001/REC-SVG-20010904/DTD/svg10.dtd">
<svg version="1.0" xmlns="http://www.w3.org/2000/svg"
 width="300.000000pt" height="280.000000pt" viewBox="0 0 300.000000 280.000000"
 preserveAspectRatio="xMidYMid meet">
<metadata>
Created by potrace 1.10, written by Peter Selinger 2001-2011
</metadata>
<g transform="translate(0.000000,280.000000) scale(0.100000,-0.100000)"
fill="#000000" stroke="none">
<path d="M1265 2675 c-274 -50 -505 -161 -698 -334 -237 -212 -379 -459 -449
-779 -29 -131 -31 -396 -4 -522 43 -206 108 -365 212 -523 79 -118 216 -264
325 -347 l76 -57 84 13 c315 50 587 137 764 243 l60 36 3 55 c4 74 -26 228
-50 252 -15 15 -34 18 -105 18 -135 1 -389 18 -433 30 -52 14 -68 46 -82 163
-11 87 -13 94 -47 123 l-36 32 23 31 c24 32 23 41 -10 78 -16 17 -18 25 -9 42
7 12 16 21 22 21 6 0 9 23 7 58 -3 52 -5 57 -28 60 -46 6 -90 23 -90 36 0 7
23 31 52 52 29 21 62 53 74 71 27 40 44 150 44 281 1 282 53 442 145 442 61 0
82 -38 210 -386 112 -303 231 -596 293 -719 149 -299 423 -602 751 -830 l84
-59 63 70 c185 202 305 437 361 704 25 118 25 401 0 522 -117 579 -572 1024
-1146 1122 -114 19 -364 20 -466 1z m427 -30 c127 -19 226 -45 329 -88 404
-168 710 -519 808 -927 90 -374 31 -754 -166 -1068 -48 -76 -180 -243 -205
-258 -23 -14 -237 147 -392 296 -324 311 -425 492 -731 1314 -93 250 -134 334
-175 356 -36 19 -78 11 -115 -21 -68 -60 -91 -156 -105 -432 -5 -111 -13 -215
-16 -232 -5 -19 -32 -54 -76 -96 -40 -39 -68 -73 -68 -85 0 -28 31 -55 72 -63
29 -6 33 -11 36 -42 2 -23 -3 -40 -12 -49 -21 -16 -20 -49 0 -79 13 -18 14
-28 5 -47 -18 -39 -13 -63 18 -95 24 -24 31 -41 40 -110 15 -108 41 -166 83
-184 45 -18 233 -35 399 -35 109 0 139 -3 149 -15 16 -19 40 -145 40 -207 0
-41 -4 -50 -33 -72 -93 -71 -355 -166 -593 -216 -232 -48 -243 -48 -301 -9
-75 51 -274 256 -328 338 -104 159 -175 331 -211 517 -25 124 -25 386 -1 508
60 295 191 533 406 738 303 289 732 425 1143 363z"/>
<path d="M2009 2165 c-14 -7 -34 -30 -44 -49 -14 -26 -24 -34 -35 -29 -8 4
-36 8 -62 8 -42 0 -52 -5 -85 -37 -31 -32 -38 -45 -38 -80 0 -24 3 -52 7 -63
6 -16 2 -23 -20 -32 -78 -36 -95 -143 -31 -209 18 -19 39 -34 47 -34 10 0 12
-5 6 -17 -4 -10 -9 -34 -11 -53 -10 -87 104 -169 180 -129 17 9 22 9 26 -2 2
-8 21 -31 41 -51 33 -33 44 -38 85 -38 40 0 52 5 79 33 17 18 36 41 41 51 9
16 14 17 32 7 45 -23 97 -10 140 36 29 30 37 63 30 116 -5 39 -4 44 23 59 88
50 89 175 1 226 -27 15 -29 19 -24 67 4 37 1 61 -11 84 -31 59 -107 87 -159
60 -17 -9 -22 -9 -26 2 -2 8 -21 31 -41 52 -32 32 -44 37 -81 37 -24 -1 -55
-7 -70 -15z m135 -44 c22 -23 29 -40 29 -70 l0 -41 34 30 c43 38 90 40 131 5
40 -33 48 -74 26 -120 -9 -20 -23 -39 -31 -42 -26 -10 -13 -19 22 -15 29 4 40
-1 70 -31 40 -40 47 -86 19 -126 -21 -30 -74 -52 -105 -44 l-24 7 28 -33 c15
-18 30 -44 33 -58 10 -37 -20 -90 -60 -109 -41 -20 -73 -14 -117 23 l-33 28 7
-24 c14 -53 -39 -121 -95 -121 -63 0 -117 58 -106 113 5 28 -6 37 -15 14 -3
-8 -22 -22 -42 -31 -46 -22 -87 -14 -120 26 -36 42 -33 88 7 133 31 36 31 36
7 34 -47 -4 -67 1 -93 27 -28 29 -36 87 -16 125 15 27 68 52 101 47 l28 -4
-30 33 c-88 101 50 233 148 141 l23 -21 0 27 c0 33 24 82 47 95 10 6 36 11 59
11 32 0 46 -6 68 -29z"/>
<path d="M2014 1862 c-83 -52 -64 -169 33 -202 66 -23 139 37 137 113 -3 81
-101 132 -170 89z m114 -38 c29 -20 31 -85 2 -114 -46 -46 -140 -11 -140 54 0
64 82 100 138 60z"/>
<path d="M1230 1616 c-35 -16 -64 -20 -133 -19 -100 1 -108 -8 -37 -44 53 -28
92 -29 146 -4 40 18 92 75 77 84 -5 2 -28 -5 -53 -17z"/>
</g>
</svg>
